<svg width="48" height="48" viewBox="0 0 48 48" fill="none" xmlns="http://www.w3.org/2000/svg">
<circle cx="24" cy="24" r="24" fill="#00CB6C"/>
<path d="M37.11 31.425C34.6533 35.1706 31.2276 37.3344 26.7403 37.8004C23.373 38.1495 20.228 37.5375 17.3973 35.6579C13.6288 33.1549 11.3959 29.6637 10.9612 25.1236C10.6435 21.8012 11.3887 18.7054 13.2961 15.9488C15.5163 12.7404 18.6548 10.9762 22.4589 10.32C23.3352 10.169 24.2202 10.1212 25.2533 10.1063C27.3409 10.1155 29.5376 10.429 31.4064 11.7051C35.5731 14.5494 36.0562 19.8141 32.7239 22.4225C31.0424 23.7385 29.254 24.6327 27.1685 24.9776C25.1571 25.3096 23.1856 25.0844 21.2369 24.5501" stroke="black" stroke-width="4" stroke-linecap="round" stroke-linejoin="round"/>
</svg>