<svg width="19" height="19" viewBox="0 0 19 19" fill="none" xmlns="http://www.w3.org/2000/svg">
<path d="M13.1652 14.6683C11.9306 15.4585 10.4983 15.877 9.03634 15.8746C5.2514 15.8746 2.10243 13.1263 1.44189 9.49962C1.74376 7.84971 2.56616 6.3425 3.78642 5.20287L1.59001 2.98862L2.58327 1.98633L16.4813 16.0113L15.488 17.0129L13.1652 14.6683ZM4.77899 6.20587C3.82503 7.08108 3.1605 8.23084 2.87529 9.49962C3.0945 10.4675 3.53461 11.3704 4.16057 12.1365C4.78653 12.9025 5.58106 13.5105 6.48091 13.912C7.38076 14.3136 8.36109 14.4977 9.34386 14.4495C10.3266 14.4014 11.2847 14.1225 12.1418 13.6349L10.7182 12.1984C10.1122 12.5836 9.39448 12.7495 8.68272 12.669C7.97097 12.5885 7.30745 12.2663 6.80101 11.7553C6.29458 11.2442 5.97528 10.5747 5.89549 9.85645C5.8157 9.13823 5.98016 8.41396 6.36189 7.80245L4.77899 6.20587ZM9.67793 11.1486L7.40219 8.8522C7.27729 9.17303 7.24789 9.52367 7.31761 9.86111C7.38732 10.1986 7.55312 10.5081 7.79466 10.7519C8.03621 10.9956 8.343 11.1629 8.6774 11.2333C9.0118 11.3036 9.35928 11.2739 9.67722 11.1479L9.67793 11.1486ZM15.2185 12.7523L14.214 11.7394C14.6832 11.0645 15.0173 10.3037 15.1974 9.49962C15.0066 8.65651 14.6479 7.86135 14.1432 7.16247C13.6384 6.46359 12.998 5.87559 12.261 5.43421C11.524 4.99284 10.7058 4.7073 9.85603 4.59495C9.00628 4.48261 8.14275 4.54581 7.31795 4.7807L6.21027 3.66295C7.08561 3.31587 8.03956 3.12462 9.03634 3.12462C12.8213 3.12462 15.9702 5.87295 16.6308 9.49962C16.4157 10.6795 15.9322 11.7929 15.2185 12.7523ZM8.8419 6.31779C9.2887 6.28992 9.73627 6.35821 10.1549 6.51812C10.5736 6.67802 10.9538 6.9259 11.2703 7.24531C11.5869 7.56473 11.8325 7.94839 11.991 8.37086C12.1495 8.79333 12.2171 9.24497 12.1895 9.69583L8.8419 6.31779Z" fill="black"/>
</svg>
