<svg width="122" height="122" viewBox="0 0 122 122" fill="none" xmlns="http://www.w3.org/2000/svg">
<circle cx="61" cy="61" r="61" fill="#00CB6C"/>
<path d="M94.3213 79.8721C88.0772 89.3922 79.3702 94.892 67.965 96.0763C59.4065 96.9637 51.413 95.4081 44.2181 90.6309C34.6401 84.269 28.9646 75.3954 27.8599 63.8561C27.0523 55.4117 28.9465 47.5432 33.7944 40.5367C39.4373 32.382 47.4144 27.8982 57.083 26.2303C59.3105 25.8464 61.5597 25.725 64.1855 25.687C69.4916 25.7106 75.0747 26.5074 79.8248 29.7508C90.4152 36.98 91.643 50.361 83.1732 56.9909C78.8994 60.3357 74.3539 62.6084 69.0533 63.4849C63.9411 64.3288 58.9302 63.7565 53.9773 62.3983" stroke="black" stroke-width="8" stroke-linecap="round" stroke-linejoin="round"/>
</svg>
