<svg width="18" height="18" viewBox="0 0 18 18" fill="none" xmlns="http://www.w3.org/2000/svg">
<path d="M9.00022 2.25C13.0442 2.25 16.4087 5.16 17.1145 9C16.4095 12.84 13.0442 15.75 9.00022 15.75C4.95622 15.75 1.59172 12.84 0.886719 9C1.59172 5.16 4.95622 2.25 9.00022 2.25ZM9.00022 14.25C10.5299 14.2498 12.0143 13.7304 13.2103 12.7766C14.4063 11.8229 15.2431 10.4913 15.5837 9C15.2422 7.50961 14.4051 6.17922 13.2092 5.22641C12.0134 4.27359 10.5296 3.75476 9.00059 3.75476C7.47158 3.75476 5.98781 4.27359 4.79197 5.22641C3.59613 6.17922 2.75899 7.50961 2.41747 9C2.75804 10.4912 3.59472 11.8226 4.79058 12.7764C5.98643 13.7301 7.47062 14.2497 9.00022 14.25ZM9.00022 12.375C8.10511 12.375 7.24667 12.0194 6.61373 11.3865C5.9808 10.7535 5.62522 9.89511 5.62522 9C5.62522 8.10489 5.9808 7.24645 6.61373 6.61351C7.24667 5.98058 8.10511 5.625 9.00022 5.625C9.89532 5.625 10.7538 5.98058 11.3867 6.61351C12.0196 7.24645 12.3752 8.10489 12.3752 9C12.3752 9.89511 12.0196 10.7535 11.3867 11.3865C10.7538 12.0194 9.89532 12.375 9.00022 12.375ZM9.00022 10.875C9.4975 10.875 9.97441 10.6775 10.326 10.3258C10.6777 9.97419 10.8752 9.49728 10.8752 9C10.8752 8.50272 10.6777 8.02581 10.326 7.67417C9.97441 7.32254 9.4975 7.125 9.00022 7.125C8.50294 7.125 8.02602 7.32254 7.67439 7.67417C7.32276 8.02581 7.12522 8.50272 7.12522 9C7.12522 9.49728 7.32276 9.97419 7.67439 10.3258C8.02602 10.6775 8.50294 10.875 9.00022 10.875Z" fill="black"/>
</svg>
